<svg width="72" height="72" viewBox="0 0 72 72" fill="none" xmlns="http://www.w3.org/2000/svg">
<path d="M57.6002 38.3813H32.3998V32.3811C32.3965 29.2461 30.648 26.3743 27.8652 24.9313C29.7933 23.3075 30.5002 20.6521 29.6362 18.2845C28.7721 15.9175 26.5204 14.3421 24.0002 14.3421C21.4799 14.3421 19.2283 15.9175 18.3636 18.2845C17.4996 20.6521 18.2071 23.3075 20.1346 24.9313C17.3518 26.3743 15.6039 29.2461 15.6 32.3811V38.3813H14.3998C6.44732 38.3813 0 44.828 0 52.781C0 60.734 6.44732 67.1808 14.3998 67.1808H57.6002C65.5526 67.1808 72 60.734 72 52.781C72 44.828 65.5526 38.3813 57.6002 38.3813ZM20.4 20.3813C20.4 18.3928 22.0116 16.7811 24.0002 16.7811C25.9881 16.7811 27.5998 18.3928 27.5998 20.3813C27.5998 22.3693 25.9881 23.981 24.0002 23.981C22.0127 23.9788 20.4021 22.3682 20.4 20.3813ZM18 32.3811C18 29.0671 20.6861 26.3809 24.0002 26.3809C27.3136 26.3809 29.9998 29.0671 29.9998 32.3811V38.3813H18V32.3811ZM57.6002 64.7809H14.3998C7.77282 64.7809 2.39996 59.4085 2.39996 52.781C2.39996 46.1535 7.77282 40.7812 14.3998 40.7812H57.6002C64.2271 40.7812 69.6 46.1535 69.6 52.781C69.6 59.4085 64.2271 64.7809 57.6002 64.7809Z" fill="#2FE4AB"/>
<path d="M57.601 43.1812H14.4006C9.09918 43.1812 4.80078 47.4791 4.80078 52.7811C4.80078 58.0831 9.09918 62.3809 14.4006 62.3809H57.601C62.9025 62.3809 67.2009 58.0831 67.2009 52.7811C67.2009 47.4791 62.9025 43.1812 57.601 43.1812ZM57.601 59.9809H14.4006C10.4241 59.9809 7.20074 56.7576 7.20074 52.7811C7.20074 48.8046 10.4241 45.5812 14.4006 45.5812H57.601C61.5775 45.5812 64.8009 48.8046 64.8009 52.7811C64.8009 56.7576 61.5775 59.9809 57.601 59.9809Z" fill="#2FE4AB"/>
<path d="M59.649 5.13282C59.3057 4.78949 58.7894 4.68677 58.3411 4.87244C57.8929 5.05811 57.6006 5.49591 57.6006 5.98096V10.7809H40.8004C39.4754 10.7825 38.402 11.8564 38.4004 13.1808V22.7812C38.402 24.1056 39.4754 25.1796 40.8004 25.1812H57.6006V29.9811C57.6006 30.4662 57.8929 30.904 58.3411 31.0896C58.7894 31.2753 59.3057 31.1726 59.649 30.8293L71.6488 18.8295C71.8741 18.6042 72.0004 18.2994 72.0004 17.9813C72.0004 17.6627 71.8741 17.3578 71.6488 17.1326L59.649 5.13282ZM60.0006 27.084V25.1812C59.999 23.8563 58.925 22.7823 57.6006 22.7812H40.8004V13.1808H57.6006C58.925 13.1797 59.999 12.1058 60.0006 10.7809V8.87805L69.1033 17.9813L60.0006 27.084Z" fill="#2FE4AB"/>
</svg>
