<svg width="30" height="16" viewBox="0 0 30 16" fill="none" xmlns="http://www.w3.org/2000/svg">
<path d="M21.0036 15.9914C17.4131 16.1834 13.045 13.1192 9.83916 11.0213C-1.78121 21.131 -4.59624 0.789019 9.56844 7.93671C12.7132 5.58547 16.0819 2.00039 19.8841 0.543884C32.913 -3.4518 32.9741 15.875 21.0036 15.9914ZM11.9397 9.3115C28.1012 22.3016 32.4102 -0.540833 20.7593 2.95641C17.7224 4.10445 14.5492 7.34022 11.9397 9.3115V9.3115ZM3.44378 11.2419C4.81567 11.5524 6.06951 10.7006 7.34573 9.73845C6.07968 9.25022 4.00149 8.56793 3.00412 9.20324C2.15127 9.85488 2.36499 10.9948 3.44378 11.2419V11.2419Z" fill="#2FE4AB"/>
<path d="M3.69824 11.2867V13.8933C5.29403 13.9423 7.36205 13.1722 9.83919 11.0211C9.05694 10.5039 8.22087 10.0737 7.34576 9.73828C6.14892 10.6391 4.97243 11.444 3.69824 11.2867Z" fill="url(#paint0_linear_17068_9651)"/>
<path d="M16.6486 5.46454L14.4972 3.8916C12.7813 5.26844 11.1468 6.75149 9.56934 7.93631C10.3962 8.32816 11.1893 8.788 11.9406 9.3111C13.3777 8.22434 14.9857 6.75762 16.6486 5.46454Z" fill="url(#paint1_linear_17068_9651)"/>
<defs>
<linearGradient id="paint0_linear_17068_9651" x1="5.62581" y1="13.5685" x2="7.41116" y2="9.82497" gradientUnits="userSpaceOnUse">
<stop stop-color="#2FE4AB" stop-opacity="0"/>
<stop offset="1" stop-color="#0F7C76"/>
</linearGradient>
<linearGradient id="paint1_linear_17068_9651" x1="14.3547" y1="4.65969" x2="11.7254" y2="8.93497" gradientUnits="userSpaceOnUse">
<stop stop-color="#2FE4AB" stop-opacity="0"/>
<stop offset="1" stop-color="#0F7C76"/>
</linearGradient>
</defs>
</svg>
