<svg width="32" height="32" viewBox="0 0 32 32" fill="none" xmlns="http://www.w3.org/2000/svg">
<circle cx="16" cy="16" r="16" fill="#2D4D53"/>
<g clip-path="url(#clip0_18935_6851)">
<path d="M12.1209 17.3061C12.6618 17.3061 13.1896 17.1258 13.6162 16.7959L10.1858 13.3655C9.35893 14.4342 9.55684 15.9735 10.6256 16.8003C11.0566 17.1258 11.5799 17.3061 12.1209 17.3061Z" fill="#E1E9EB"/>
<path d="M22.3242 14.8564C22.3242 14.3155 22.1439 13.7877 21.814 13.3611L18.3835 16.7915C19.4523 17.6184 20.9872 17.4205 21.814 16.3517C22.1439 15.9251 22.3242 15.3974 22.3242 14.8564Z" fill="#E1E9EB"/>
<path d="M24.0527 11.1226L22.5354 12.6399C23.758 14.1044 23.5645 16.2858 22.1 17.5085C20.8157 18.5816 18.951 18.5816 17.6667 17.5085L15.9999 19.1753L14.3374 17.5129C12.8729 18.7355 10.6915 18.542 9.46884 17.0775C8.39572 15.7933 8.39572 13.9285 9.46884 12.6443L8.69039 11.8658L7.95152 11.1226C7.05872 12.5915 6.58813 14.2803 6.58813 16C6.58813 21.1984 10.8014 25.4117 15.9999 25.4117C21.1984 25.4117 25.4117 21.1984 25.4117 16C25.4161 14.2803 24.9411 12.5915 24.0527 11.1226Z" fill="#E1E9EB"/>
<path d="M22.808 9.50413C19.2236 5.74382 13.2687 5.60308 9.50834 9.18747C9.39839 9.29302 9.29284 9.39857 9.19169 9.50413C8.95859 9.75042 8.73869 10.0055 8.53198 10.2738L15.9998 17.746L23.4677 10.2738C23.2654 10.0055 23.0411 9.75042 22.808 9.50413ZM15.9998 7.81968C18.1988 7.81968 20.2483 8.6685 21.7876 10.2166L15.9998 16.0044L10.212 10.2166C11.7513 8.6685 13.8008 7.81968 15.9998 7.81968Z" fill="#E1E9EB"/>
</g>
<defs>
<clipPath id="clip0_18935_6851">
<rect width="18.8235" height="18.8235" fill="white" transform="translate(6.58813 6.58813)"/>
</clipPath>
</defs>
</svg>
